<svg width="115" height="20" fill="none" xmlns="http://www.w3.org/2000/svg"><g fill="#5F5F5F"><path d="M94.684 9.878c.029-2.493.854-4.685 2.528-6.541C98.766 1.612 100.7.53 102.996.155c3.296-.536 6.211.318 8.687 2.561 1.537 1.39 2.522 3.12 2.966 5.152.194.894.256 1.805.176 2.716-.204 2.482-1.212 4.594-2.994 6.325-1.395 1.355-3.063 2.22-4.964 2.619a9.78 9.78 0 0 1-2.477.21c-2.755-.13-5.112-1.161-7.025-3.16-1.36-1.423-2.203-3.12-2.544-5.06a8.892 8.892 0 0 1-.137-1.651v.011Zm10.446 7.236c.205-.029.615-.052 1.014-.137 2.345-.478 4.059-1.787 5.089-3.945.7-1.457.86-3.006.558-4.589-.347-1.804-1.247-3.279-2.715-4.389-1.594-1.201-3.405-1.622-5.369-1.355a6.794 6.794 0 0 0-3.962 1.959c-1.344 1.326-2.027 2.954-2.14 4.833a7.137 7.137 0 0 0 .29 2.5c.512 1.707 1.503 3.056 3.006 4.018 1.224.786 2.579 1.128 4.229 1.099v.006ZM30.07 19.481H27.33s-.011-.006-.011-.011c0 0-.012-.012-.012-.017 0-.023-.011-.052-.011-.074V.7c0-.022.005-.045.011-.085.057 0 .108-.011.16-.011 2.026 0 4.053 0 6.085.017.558 0 1.116.017 1.674.068 1.355.12 2.573.586 3.558 1.548.934.911 1.532 2.01 1.674 3.32.188 1.696-.302 3.176-1.492 4.406-.626.649-1.389 1.07-2.26 1.309-.256.068-.512.148-.768.228-.046.011-.091.034-.165.068 2.271 2.636 4.531 5.249 6.791 7.873-.074.069-.154.046-.222.046h-2.362c-.228 0-.462-.006-.69 0a.368.368 0 0 1-.318-.142c-.837-1.002-1.685-2.004-2.528-3.006-1.907-2.272-3.808-4.543-5.715-6.809-.017-.023-.04-.046-.074-.091.068-.006.114-.012.16-.012.574 0 1.155 0 1.73-.005.632-.006 1.264.005 1.895-.034 1.19-.074 2.164-.57 2.773-1.617.99-1.708.154-3.997-1.902-4.47a8.25 8.25 0 0 0-1.4-.164c-.797-.04-1.6-.04-2.397-.057-.25 0-.495-.011-.745-.011-.097 0-.2.01-.296.022-.217.034-.314.131-.36.348-.01.045-.01.096-.016.148 0 .159-.012.324-.012.483v11.164c0 1.224.006 2.443.012 3.666 0 .16-.006.325-.012.484 0 .035-.017.069-.022.114l.005-.017ZM54.666.61h2.948c.006.534 0 1.064 0 1.599v4.817c.103.005.137-.058.183-.103.432-.439.86-.877 1.286-1.315 1.087-1.11 2.18-2.22 3.268-3.336.484-.49.962-.985 1.44-1.48a.34.34 0 0 1 .262-.114h3.33c.046 0 .092.005.183.017-1.56 1.594-3.097 3.16-4.629 4.725-1.531 1.56-3.063 3.125-4.61 4.708 1.547 1.582 3.085 3.148 4.616 4.713 1.531 1.56 3.063 3.126 4.617 4.714-.085.006-.125.012-.165.012h-3.348c-.12 0-.193-.046-.273-.126a2056.047 2056.047 0 0 0-3.501-3.575l-2.476-2.527a.63.63 0 0 0-.165-.126c-.035.433-.023.854-.029 1.281v5.135c-.16.046-2.767.051-2.955.006V.604l.017.005ZM18.713 19.465c-.063 0-.12.01-.182.01h-2.437c-.148 0-.216-.05-.279-.181-1.508-3.296-3.017-6.593-4.531-9.889a722.302 722.302 0 0 1-1.395-3.04c-.028-.068-.062-.13-.114-.233-.05.097-.09.153-.12.222l-1.57 3.433-4.202 9.16c-.057.13-.125.256-.176.392-.04.108-.108.154-.222.148-.2-.005-.399 0-.598 0H1.008c-.074 0-.142 0-.25-.011 3-6.501 5.989-12.974 8.983-19.458.131.176 8.95 19.299 8.972 19.452v-.005ZM72.106.604h2.852c2.032 4.412 4.064 8.823 6.102 13.241h.052c1.024-2.209 2.038-4.418 3.057-6.626C85.188 5.015 86.2 2.807 87.214.604h2.887c-3 6.467-5.99 12.911-8.995 19.395-3.012-6.49-6-12.934-8.995-19.395h-.005ZM53.501 5.324c.142.143.273.302.427.433.24.193.296.433.29.734-.017 1.008-.005 2.021-.005 3.029v.25c-.057-.04-.091-.057-.12-.085-.182-.182-.364-.37-.54-.558a.296.296 0 0 1-.08-.176V5.347c.011-.006.022-.011.034-.023H53.5ZM53.467 14.95v-3.557c0-.12.034-.211.12-.29.198-.188.386-.382.585-.576.063.052.04.126.04.188V14.028a.43.43 0 0 1-.13.33c-.166.154-.32.325-.484.49-.035.034-.074.063-.137.114l.006-.011ZM52.312 4.135c.057.05.097.08.131.108.142.142.285.296.433.432a.29.29 0 0 1 .096.228c-.005.194 0 .382 0 .575v3.023c-.056-.045-.09-.068-.119-.097-.154-.153-.302-.307-.455-.46a.265.265 0 0 1-.097-.212V4.237c0-.023.005-.051.011-.108v.006ZM52.969 11.762v3.524c0 .136-.035.239-.131.33-.171.16-.336.33-.518.512-.012-.057-.023-.097-.023-.136v-3.445c0-.102.028-.176.102-.245.188-.17.37-.347.57-.54ZM51.14 2.95c.194.181.382.358.564.546.04.04.034.125.034.193v3.564c-.057-.046-.091-.068-.12-.097-.142-.142-.284-.279-.415-.427a.305.305 0 0 1-.074-.176V3.018c0-.023.006-.046.011-.063v-.006ZM51.14 17.325c0-.069-.011-.12-.011-.165V13.76c0-.108.023-.188.102-.262.16-.154.313-.313.49-.495.006.074.017.12.017.16v3.42a.325.325 0 0 1-.108.263c-.131.125-.25.256-.382.381-.028.028-.062.051-.113.097h.005ZM50.507 5.95c-.17-.155-.347-.303-.506-.462-.04-.04-.04-.125-.04-.194V1.737c.051.033.085.056.114.079.08.08.148.17.233.24.182.136.205.312.2.523-.006 1.059 0 2.118 0 3.182v.194-.006ZM49.96 18.52v-3.524a.41.41 0 0 1 .143-.341c.131-.114.245-.24.387-.382.006.057.017.091.017.131v3.456a.282.282 0 0 1-.096.228c-.143.13-.285.267-.45.432ZM49.256 4.737c-.16-.165-.302-.29-.421-.438-.04-.052-.046-.137-.046-.211V.894c0-.062 0-.12.011-.188.04-.011.069-.022.097-.022.131.017.37.279.382.415v3.439c0 .05-.006.108-.018.199h-.005ZM48.781 19.539v-3.354c0-.142.04-.25.148-.341.108-.091.2-.2.325-.324.006.09.017.142.017.193v3.365c0 .125-.029.227-.131.307a.585.585 0 0 0-.103.102c-.062.075-.136.097-.25.046l-.006.006ZM47.98 3.445c-.114-.114-.228-.222-.33-.341-.023-.029-.029-.08-.029-.12V.769c0-.017.006-.034.011-.068h.388v2.721l-.04.023ZM47.999 19.562h-.37c0-.069-.012-.131-.012-.188v-2.027c0-.114.029-.199.114-.279.091-.08.17-.17.268-.267.05.216.05 2.579 0 2.755v.006ZM46.47.683h.188c.034 0 .074.006.12.012v1.48c-.103-.091-.206-.177-.297-.273-.028-.029-.04-.08-.04-.12V.757c0-.017.012-.034.029-.08v.006ZM46.766 19.561h-.307c0-.062-.018-.13-.018-.193v-.78c0-.137.029-.24.131-.33.063-.057.114-.131.177-.211.051.16.062 1.298.017 1.514ZM45.52.702v.193c-.097-.028-.137-.108-.2-.17.063-.057.126-.035.2-.023ZM45.517 19.562h-.216c.08-.08.13-.137.216-.222v.222Z"/></g></svg>